<svg width="34" height="37" viewBox="0 0 34 37" fill="none" xmlns="http://www.w3.org/2000/svg">
<path d="M33.1103 26.5988C31.4716 29.7537 28.9594 32.3381 25.8917 34.0254C22.8239 35.7127 19.3382 36.4271 15.8755 36.0781C12.4128 35.7292 9.12844 34.3326 6.43785 32.0651C3.7473 29.7976 1.77132 26.7608 0.759813 23.339C-0.251696 19.9172 -0.253303 16.2638 0.755196 12.841C1.76369 9.41826 3.737 6.3797 6.4256 4.10965C9.11413 1.8396 12.3973 0.440013 15.8597 0.0878635C19.3221 -0.264286 22.8084 0.446821 25.8776 2.13126L23.7945 6.14166C21.4969 4.88072 18.8871 4.34841 16.2952 4.61202C13.7033 4.87563 11.2457 5.92333 9.23302 7.62263C7.22039 9.32192 5.74324 11.5965 4.9883 14.1588C4.23337 16.721 4.23457 19.4558 4.99176 22.0173C5.74895 24.5789 7.22815 26.852 9.24225 28.5495C11.2563 30.2469 13.7149 31.2923 16.307 31.5535C18.8992 31.8147 21.5085 31.28 23.805 30.0169C26.1014 28.7539 27.9819 26.8192 29.2087 24.4576L33.1103 26.5988Z" fill="white"/>
<path d="M18.5018 27.4351C23.3596 27.4351 27.2977 23.3872 27.2977 18.394C27.2977 13.4007 23.3596 9.35286 18.5018 9.35286C13.6439 9.35286 9.70581 13.4007 9.70581 18.394C9.70581 23.3872 13.6439 27.4351 18.5018 27.4351Z" fill="#FF9047"/>
</svg>
