<svg width="200" height="200" viewBox="0 0 200 200" fill="none" xmlns="http://www.w3.org/2000/svg">
<g clip-path="url(#clip0_180_2251)">
<path d="M146.152 168.981C147.522 170.957 150.242 171.456 152.153 169.997C162.586 162.029 171.268 151.976 177.634 140.459C184.704 127.672 188.729 113.425 189.396 98.8283C190.062 84.2315 187.353 69.6776 181.478 56.2986C175.603 42.9196 166.721 31.0762 155.522 21.6894C144.324 12.3027 131.111 5.62559 116.912 2.17756C102.712 -1.27047 87.9089 -1.39656 73.6528 1.80913C59.3967 5.01481 46.0723 11.4658 34.7157 20.6605C24.4886 28.9407 16.1057 39.245 10.083 50.9092C8.97973 53.0459 9.94596 55.6367 12.131 56.6409C14.316 57.6451 16.8915 56.6819 18.0047 54.5503C23.4616 44.1009 31.0095 34.8659 40.1954 27.4287C50.511 19.0768 62.614 13.2172 75.5633 10.3053C88.5126 7.39348 101.959 7.50802 114.857 10.64C127.755 13.7719 139.756 19.8369 149.928 28.3632C160.1 36.8895 168.168 47.6473 173.504 59.7999C178.841 71.9525 181.302 85.1723 180.696 98.4311C180.091 111.69 176.435 124.63 170.013 136.246C164.295 146.59 156.52 155.635 147.184 162.833C145.28 164.301 144.781 167.005 146.152 168.981Z" fill="#C0F1F1"/>
<path d="M181.17 121.027C183.47 121.731 185.914 120.44 186.512 118.11C189.776 105.395 190.372 92.125 188.245 79.1392C185.883 64.7192 180.227 51.0385 171.716 39.1609C163.205 27.2834 152.069 17.5292 139.174 10.657C126.278 3.78484 111.972 -0.0200806 97.3663 -0.461823C82.7609 -0.903565 68.2504 2.02978 54.9635 8.11007C41.6765 14.1904 29.9712 23.2537 20.758 34.5952C11.5448 45.9367 5.07192 59.2506 1.84291 73.5014C-1.06497 86.335 -1.27156 99.6168 1.21732 112.506C1.67325 114.867 4.03566 116.304 6.37342 115.74C8.71118 115.177 10.138 112.826 9.69294 110.463C7.51148 98.878 7.72413 86.9528 10.336 75.4258C13.269 62.4813 19.1485 50.3878 27.5172 40.086C35.8859 29.7841 46.5182 21.5516 58.5871 16.0287C70.6561 10.5057 83.8364 7.84129 97.103 8.24254C110.37 8.64379 123.365 12.0999 135.078 18.3422C146.791 24.5844 156.906 33.4444 164.637 44.2332C172.368 55.022 177.506 67.4487 179.651 80.5468C181.562 92.2106 181.053 104.127 178.176 115.559C177.589 117.891 178.871 120.323 181.17 121.027Z" fill="#FF9047"/>
<path d="M144.89 19.1494C146.227 17.1506 145.696 14.437 143.638 13.193C129.821 4.84131 114.08 0.135843 97.898 -0.444265C80.263 -1.07645 62.8004 3.21567 47.4678 11.951C32.1352 20.6862 19.5386 33.5194 11.0901 49.0119C2.64164 64.5044 -1.32483 82.0438 -0.364629 99.664C0.595568 117.284 6.44447 134.289 16.5264 148.771C26.6084 163.254 40.5249 174.643 56.7159 181.66C72.907 188.677 90.7326 191.047 108.194 188.502C124.218 186.167 139.354 179.779 152.181 169.975C154.092 168.515 154.326 165.759 152.779 163.918C151.233 162.076 148.493 161.846 146.576 163.297C134.992 172.066 121.361 177.783 106.939 179.884C91.0774 182.196 74.8858 180.044 60.179 173.67C45.4721 167.296 32.8313 156.951 23.6735 143.796C14.5157 130.641 9.20299 115.195 8.33081 99.1902C7.45864 83.1851 11.0615 67.2535 18.7356 53.1812C26.4096 39.1088 37.8515 27.452 51.7786 19.5175C65.7057 11.5829 81.5676 7.68425 97.5861 8.25849C112.152 8.78064 126.323 12.9823 138.791 20.4401C140.855 21.6745 143.554 21.1482 144.89 19.1494Z" fill="#3BCAC9"/>
</g>
<defs>
<clipPath id="clip0_180_2251">
<rect width="200" height="200" fill="white"/>
</clipPath>
</defs>
</svg>
