<svg width="249" height="249" viewBox="0 0 249 249" fill="none" xmlns="http://www.w3.org/2000/svg">
<path d="M176.152 198.981C177.522 200.957 180.242 201.456 182.153 199.997C192.586 192.029 201.268 181.976 207.634 170.459C214.704 157.672 218.729 143.425 219.396 128.828C220.062 114.231 217.353 99.6776 211.478 86.2986C205.603 72.9196 196.721 61.0762 185.522 51.6894C174.324 42.3027 161.111 35.6256 146.912 32.1776C132.712 28.7295 117.909 28.6034 103.653 31.8091C89.3967 35.0148 76.0723 41.4659 64.7157 50.6605C54.4886 58.9407 46.1058 69.245 40.083 80.9092C38.9797 83.0459 39.946 85.6367 42.131 86.6409V86.6409C44.316 87.6451 46.8915 86.6819 48.0047 84.5503C53.4616 74.1009 61.0095 64.8659 70.1954 57.4287C80.511 49.0768 92.614 43.2172 105.563 40.3053C118.513 37.3935 131.959 37.508 144.857 40.64C157.755 43.7719 169.756 49.8369 179.928 58.3632C190.1 66.8895 198.168 77.6473 203.504 89.7999C208.841 101.952 211.302 115.172 210.696 128.431C210.091 141.69 206.435 154.63 200.013 166.246C194.295 176.59 186.52 185.635 177.184 192.833C175.28 194.301 174.781 197.005 176.152 198.981V198.981Z" fill="#C0F1F1"/>
<path d="M211.17 151.027C213.47 151.731 215.914 150.44 216.512 148.11C219.776 135.395 220.372 122.125 218.245 109.139C215.883 94.7192 210.227 81.0385 201.716 69.1609C193.205 57.2834 182.069 47.5292 169.174 40.657C156.278 33.7848 141.972 29.9799 127.366 29.5382C112.761 29.0964 98.2504 32.0298 84.9635 38.1101C71.6765 44.1904 59.9712 53.2537 50.758 64.5952C41.5448 75.9367 35.0719 89.2506 31.8429 103.501C28.935 116.335 28.7284 129.617 31.2173 142.506C31.6733 144.867 34.0357 146.304 36.3734 145.74V145.74C38.7112 145.177 40.1379 142.826 39.6929 140.463C37.5115 128.878 37.7241 116.953 40.336 105.426C43.269 92.4813 49.1485 80.3878 57.5172 70.086C65.8859 59.7841 76.5182 51.5516 88.5871 46.0287C100.656 40.5057 113.836 37.8413 127.103 38.2425C140.37 38.6438 153.365 42.0999 165.078 48.3422C176.791 54.5844 186.906 63.4444 194.637 74.2332C202.368 85.022 207.506 97.4487 209.651 110.547C211.562 122.211 211.053 134.127 208.176 145.559C207.589 147.891 208.871 150.323 211.17 151.027V151.027Z" fill="#FF9047"/>
<path d="M174.89 49.1494C176.227 47.1506 175.696 44.437 173.638 43.193C159.821 34.8413 144.08 30.1358 127.898 29.5557C110.263 28.9235 92.8004 33.2157 77.4678 41.951C62.1352 50.6862 49.5386 63.5194 41.0901 79.0119C32.6416 94.5044 28.6752 112.044 29.6354 129.664C30.5956 147.284 36.4445 164.289 46.5264 178.771C56.6084 193.254 70.5249 204.643 86.7159 211.66C102.907 218.677 120.733 221.047 138.194 218.502C154.218 216.167 169.354 209.779 182.181 199.975C184.092 198.515 184.326 195.759 182.779 193.918V193.918C181.233 192.076 178.493 191.846 176.576 193.297C164.992 202.066 151.361 207.783 136.939 209.884C121.077 212.196 104.886 210.044 90.179 203.67C75.4721 197.296 62.8313 186.951 53.6735 173.796C44.5157 160.641 39.203 145.195 38.3308 129.19C37.4586 113.185 41.0615 97.2535 48.7356 83.1812C56.4096 69.1088 67.8515 57.452 81.7786 49.5175C95.7057 41.5829 111.568 37.6843 127.586 38.2585C142.152 38.7806 156.323 42.9823 168.791 50.4401C170.855 51.6745 173.554 51.1482 174.89 49.1494V49.1494Z" fill="#3BCAC9"/>
</svg>
