<svg width="9" height="5" viewBox="0 0 9 5" fill="none" xmlns="http://www.w3.org/2000/svg">
<path d="M4.74373 4.89838C4.61044 4.89869 4.48128 4.84292 4.37865 4.74074L0.956069 1.31394C0.839578 1.19761 0.766321 1.03044 0.752414 0.849218C0.738507 0.66799 0.785089 0.487548 0.881913 0.347586C0.978737 0.207624 1.11787 0.119607 1.26871 0.102899C1.41955 0.0861897 1.56973 0.142157 1.68622 0.258489L4.74373 3.3289L7.80123 0.368147C7.85958 0.311217 7.92672 0.268703 7.99879 0.243049C8.07085 0.217395 8.14643 0.209106 8.22117 0.21866C8.29591 0.228213 8.36835 0.255419 8.43431 0.298716C8.50027 0.342013 8.55847 0.400546 8.60554 0.470951C8.65778 0.541421 8.69734 0.624093 8.72175 0.713789C8.74616 0.803484 8.75489 0.89827 8.7474 0.992208C8.7399 1.08615 8.71634 1.17721 8.67818 1.2597C8.64003 1.34219 8.58811 1.41432 8.52568 1.47158L5.1031 4.78187C4.99752 4.86789 4.87099 4.90891 4.74373 4.89838Z" fill="black"/>
</svg>
