<svg width="165" height="37" viewBox="0 0 165 37" fill="none" xmlns="http://www.w3.org/2000/svg">
<g clip-path="url(#clip0_632_7519)">
<path d="M48.3743 7.33701C50.5298 7.33701 52.3205 7.89942 53.7465 9.02426C55.1725 10.1491 56.1341 11.6744 56.6316 13.6003H53.6221C53.2076 12.5096 52.5444 11.6489 51.6324 11.0183C50.7371 10.3706 49.6344 10.0468 48.3245 10.0468C47.2799 10.0468 46.3431 10.311 45.5141 10.8393C44.7016 11.3677 44.055 12.1261 43.5741 13.1146C43.1099 14.086 42.8777 15.2279 42.8777 16.5402C42.8777 17.8355 43.1099 18.9774 43.5741 19.9659C44.055 20.9373 44.7016 21.6872 45.5141 22.2155C46.3431 22.7438 47.2799 23.008 48.3245 23.008C49.6344 23.008 50.7371 22.6927 51.6324 22.0621C52.5444 21.4145 53.2076 20.5538 53.6221 19.4801H56.6316C56.1341 21.406 55.1725 22.9313 53.7465 24.0562C52.3205 25.164 50.5298 25.7179 48.3743 25.7179C46.7162 25.7179 45.2488 25.3344 43.9721 24.5675C42.6953 23.7835 41.7088 22.7013 41.0124 21.3208C40.316 19.9233 39.9678 18.3297 39.9678 16.5402C39.9678 14.7507 40.316 13.1657 41.0124 11.7852C41.7088 10.3877 42.6953 9.29693 43.9721 8.51297C45.2488 7.72901 46.7162 7.33701 48.3743 7.33701ZM65.7278 11.2995C67.0545 11.2995 68.2483 11.5893 69.3093 12.1687C70.3708 12.7481 71.1995 13.5833 71.7964 14.674C72.3933 15.7647 72.6918 17.043 72.6918 18.5087C72.6918 19.9914 72.3933 21.2782 71.7964 22.3689C71.1995 23.4596 70.3708 24.2948 69.3093 24.8742C68.2483 25.4537 67.0545 25.7434 65.7278 25.7434C64.4017 25.7434 63.2079 25.4537 62.1463 24.8742C61.1017 24.2948 60.273 23.4596 59.6594 22.3689C59.0625 21.2611 58.7641 19.9744 58.7641 18.5087C58.7641 17.043 59.0625 15.7647 59.6594 14.674C60.273 13.5833 61.1017 12.7481 62.1463 12.1687C63.2079 11.5893 64.4017 11.2995 65.7278 11.2995ZM65.7278 13.8304C64.9986 13.8304 64.3271 14.0008 63.7132 14.3417C63.0999 14.6826 62.6025 15.2109 62.2209 15.9267C61.8564 16.6255 61.6738 17.4861 61.6738 18.5087C61.6738 19.5483 61.8564 20.4175 62.2209 21.1163C62.6025 21.815 63.0999 22.3348 63.7132 22.6757C64.3271 23.0166 64.9986 23.187 65.7278 23.187C66.4576 23.187 67.1291 23.0166 67.7424 22.6757C68.3563 22.3348 68.8452 21.815 69.2098 21.1163C69.5913 20.4175 69.7818 19.5483 69.7818 18.5087C69.7818 17.4861 69.5913 16.6255 69.2098 15.9267C68.8452 15.2109 68.3563 14.6826 67.7424 14.3417C67.1291 14.0008 66.4576 13.8304 65.7278 13.8304ZM92.5542 11.2484C94.1794 11.2484 95.4727 11.7767 96.4342 12.8334C97.4126 13.8901 97.9016 15.3984 97.9016 17.3583V25.5645H95.0662V17.6651C95.0662 16.438 94.7678 15.4921 94.1709 14.8274C93.574 14.1457 92.7532 13.8048 91.7086 13.8048C90.5979 13.8048 89.7104 14.1713 89.0474 14.9041C88.4007 15.6199 88.0774 16.6766 88.0774 18.0741V25.5645H85.2421V17.6651C85.2421 16.438 84.9436 15.4921 84.3467 14.8274C83.7498 14.1457 82.929 13.8048 81.8844 13.8048C80.7737 13.8048 79.8863 14.1713 79.2232 14.9041C78.5766 15.6199 78.2532 16.6766 78.2532 18.0741V25.5645H75.4179V11.4785H78.2532V14.4184C78.6014 13.3958 79.182 12.6118 79.9942 12.0664C80.8065 11.521 81.7601 11.2484 82.8544 11.2484C83.9985 11.2484 84.9849 11.5381 85.8141 12.1176C86.6597 12.697 87.273 13.5322 87.6546 14.6229C88.0525 13.5662 88.6907 12.7397 89.5697 12.1431C90.4487 11.5466 91.4435 11.2484 92.5542 11.2484ZM109.072 11.2995C110.266 11.2995 111.327 11.5893 112.255 12.1687C113.2 12.7481 113.938 13.5833 114.469 14.674C114.999 15.7647 115.265 17.043 115.265 18.5087C115.265 19.9914 114.999 21.2782 114.469 22.3689C113.938 23.4596 113.2 24.2948 112.255 24.8742C111.327 25.4537 110.266 25.7434 109.072 25.7434C107.828 25.7434 106.767 25.4281 105.888 24.7975C105.009 24.167 104.396 23.3318 104.048 22.2922V32.2624H101.213V11.4785H104.048V14.7507C104.396 13.7111 105.009 12.876 105.888 12.2454C106.767 11.6148 107.828 11.2995 109.072 11.2995ZM108.201 13.8559C107.405 13.8559 106.692 14.0519 106.062 14.4439C105.432 14.8189 104.935 15.3643 104.57 16.0801C104.205 16.7788 104.023 17.5884 104.023 18.5087C104.023 19.446 104.205 20.2641 104.57 20.9629C104.935 21.6617 105.432 22.207 106.062 22.599C106.692 22.9739 107.405 23.1614 108.201 23.1614C109.461 23.1614 110.473 22.7524 111.236 21.9343C111.998 21.0992 112.38 19.9573 112.38 18.5087C112.38 17.0771 111.998 15.9437 111.236 15.1086C110.473 14.2735 109.461 13.8559 108.201 13.8559ZM123.492 11.2995C124.736 11.2995 125.797 11.6148 126.676 12.2454C127.554 12.876 128.176 13.7111 128.541 14.7507V11.4785H131.377V25.5645H128.541V22.2922C128.176 23.3318 127.554 24.167 126.676 24.7975C125.797 25.4281 124.736 25.7434 123.492 25.7434C122.299 25.7434 121.229 25.4537 120.284 24.8742C119.355 24.2948 118.625 23.4596 118.095 22.3689C117.564 21.2782 117.299 19.9914 117.299 18.5087C117.299 17.043 117.564 15.7647 118.095 14.674C118.625 13.5833 119.355 12.7481 120.284 12.1687C121.229 11.5893 122.299 11.2995 123.492 11.2995ZM124.363 13.8559C123.102 13.8559 122.091 14.2735 121.329 15.1086C120.582 15.9267 120.209 17.06 120.209 18.5087C120.209 19.9573 120.582 21.0992 121.329 21.9343C122.091 22.7524 123.102 23.1614 124.363 23.1614C125.159 23.1614 125.872 22.9739 126.502 22.599C127.131 22.207 127.629 21.6617 127.994 20.9629C128.359 20.2641 128.541 19.446 128.541 18.5087C128.541 17.5884 128.359 16.7788 127.994 16.0801C127.629 15.3643 127.131 14.8189 126.502 14.4439C125.872 14.0519 125.159 13.8559 124.363 13.8559ZM142.439 11.2484C144.031 11.2484 145.308 11.7767 146.27 12.8334C147.231 13.8901 147.712 15.3984 147.712 17.3583V25.5645H144.877V17.6651C144.877 16.4039 144.561 15.4324 143.932 14.7507C143.301 14.0519 142.439 13.7026 141.345 13.7026C140.217 13.7026 139.314 14.0775 138.634 14.8274C137.954 15.5602 137.614 16.6425 137.614 18.0741V25.5645H134.779V11.4785H137.614V14.5718C137.979 13.5151 138.592 12.697 139.455 12.1176C140.317 11.5381 141.312 11.2484 142.439 11.2484ZM152.645 11.4785L156.748 21.8321L160.554 11.4785H163.712L155.43 32.2624H152.272L155.231 25.2321L149.461 11.4785H152.645Z" fill="white"/>
<path d="M33.1103 26.5988C31.4716 29.7537 28.9594 32.3381 25.8917 34.0254C22.8239 35.7127 19.3382 36.4271 15.8755 36.0781C12.4128 35.7292 9.12844 34.3326 6.43785 32.0651C3.7473 29.7976 1.77132 26.7608 0.759813 23.339C-0.251696 19.9172 -0.253303 16.2638 0.755196 12.841C1.76369 9.41826 3.737 6.3797 6.4256 4.10965C9.11413 1.8396 12.3973 0.440013 15.8597 0.0878635C19.3221 -0.264286 22.8084 0.446821 25.8776 2.13126L23.7945 6.14166C21.4969 4.88072 18.8871 4.34841 16.2952 4.61202C13.7033 4.87563 11.2457 5.92333 9.23302 7.62263C7.22039 9.32192 5.74324 11.5965 4.9883 14.1588C4.23337 16.721 4.23457 19.4558 4.99176 22.0173C5.74895 24.5789 7.22815 26.852 9.24225 28.5495C11.2563 30.2469 13.7149 31.2923 16.307 31.5535C18.8992 31.8147 21.5085 31.28 23.805 30.0169C26.1014 28.7539 27.9819 26.8192 29.2087 24.4576L33.1103 26.5988Z" fill="white"/>
<path d="M18.5018 27.4351C23.3596 27.4351 27.2977 23.3872 27.2977 18.394C27.2977 13.4007 23.3596 9.35286 18.5018 9.35286C13.6439 9.35286 9.70581 13.4007 9.70581 18.394C9.70581 23.3872 13.6439 27.4351 18.5018 27.4351Z" fill="#FF9047"/>
</g>
<defs>
<clipPath id="clip0_632_7519">
<rect width="165" height="36.1644" fill="white"/>
</clipPath>
</defs>
</svg>
