<svg width="18" height="18" viewBox="0 0 18 18" fill="none" xmlns="http://www.w3.org/2000/svg">
<path d="M12.75 0H6.90625C6.60742 0 6.35563 0.102376 6.15088 0.307129C5.94613 0.511882 5.84375 0.763672 5.84375 1.0625H11.6875V5.3125H15.9375V13.8125H12.2188V14.875H15.9375C16.2363 14.875 16.4881 14.7726 16.6929 14.5679C16.8976 14.3631 17 14.1113 17 13.8125V4.25L12.75 0ZM12.75 4.25V1.49414L15.4893 4.25H12.75ZM1.0625 2.125C0.763672 2.125 0.511882 2.22738 0.307129 2.43213C0.102376 2.63688 0 2.88867 0 3.1875V15.9375C0 16.2363 0.102376 16.4881 0.307129 16.6929C0.511882 16.8976 0.763672 17 1.0625 17H10.0938C10.3926 17 10.6444 16.8976 10.8491 16.6929C11.0539 16.4881 11.1562 16.2363 11.1562 15.9375V6.375L6.90625 2.125H1.0625ZM10.0938 15.9375H1.0625V3.1875H5.84375V7.4375H10.0938V15.9375ZM6.90625 6.375V3.61914L9.64551 6.375H6.90625Z" fill="#3BCAC9"/>
</svg>
