<svg width="17" height="18" viewBox="0 0 17 18" fill="none" xmlns="http://www.w3.org/2000/svg">
<path d="M12.75 0.5H6.90625C6.60742 0.5 6.35563 0.602376 6.15088 0.807129C5.94613 1.01188 5.84375 1.26367 5.84375 1.5625H11.6875V5.8125H15.9375V14.3125H12.2188V15.375H15.9375C16.2363 15.375 16.4881 15.2726 16.6929 15.0679C16.8976 14.8631 17 14.6113 17 14.3125V4.75L12.75 0.5ZM12.75 4.75V1.99414L15.4893 4.75H12.75ZM1.0625 2.625C0.763672 2.625 0.511882 2.72738 0.307129 2.93213C0.102376 3.13688 0 3.38867 0 3.6875V16.4375C0 16.7363 0.102376 16.9881 0.307129 17.1929C0.511882 17.3976 0.763672 17.5 1.0625 17.5H10.0938C10.3926 17.5 10.6444 17.3976 10.8491 17.1929C11.0539 16.9881 11.1563 16.7363 11.1563 16.4375V6.875L6.90625 2.625H1.0625ZM10.0938 16.4375H1.0625V3.6875H5.84375V7.9375H10.0938V16.4375ZM6.90625 6.875V4.11914L9.64551 6.875H6.90625Z" fill="#3BCAC9"/>
</svg>
