<svg width="17" height="18" viewBox="0 0 17 18" fill="none" xmlns="http://www.w3.org/2000/svg">
<path fill-rule="evenodd" clip-rule="evenodd" d="M2.35385 0H2.28846C1.989 0 1.73138 9.74307e-09 1.50385 0.0536154C1.1516 0.137785 0.829535 0.31783 0.573332 0.573801C0.31713 0.829773 0.136795 1.15168 0.0523076 1.50385C-4.87153e-08 1.73138 0 1.98769 0 2.28846V5.55769C0 5.85715 9.74307e-09 6.11477 0.0536154 6.34231C0.137785 6.69455 0.31783 7.01662 0.573801 7.27282C0.829773 7.52902 1.15168 7.70936 1.50385 7.79385C1.73138 7.84615 1.98769 7.84615 2.28846 7.84615H5.55769C5.85715 7.84615 6.11477 7.84615 6.34231 7.79254C6.69455 7.70837 7.01662 7.52832 7.27282 7.27235C7.52902 7.01638 7.70936 6.69448 7.79385 6.34231C7.84615 6.11477 7.84615 5.85846 7.84615 5.55769V2.28846C7.84615 1.989 7.84615 1.73138 7.79254 1.50385C7.70837 1.1516 7.52832 0.829535 7.27235 0.573332C7.01638 0.31713 6.69448 0.136795 6.34231 0.0523076C6.11477 -4.87153e-08 5.85846 0 5.55769 0H2.35385ZM1.80854 1.326C1.86477 1.31292 1.95238 1.30769 2.35385 1.30769H5.49231C5.89508 1.30769 5.98138 1.31162 6.03762 1.326C6.15509 1.35409 6.26248 1.41417 6.34788 1.49958C6.43329 1.58498 6.49337 1.69238 6.52146 1.80985C6.53454 1.86477 6.53846 1.95108 6.53846 2.35385V5.49231C6.53846 5.89508 6.53454 5.98138 6.52015 6.03762C6.49206 6.15509 6.43198 6.26248 6.34658 6.34788C6.26117 6.43329 6.15378 6.49337 6.03631 6.52146C5.98269 6.53323 5.89638 6.53846 5.49231 6.53846H2.35385C1.95108 6.53846 1.86477 6.53454 1.80854 6.52015C1.69107 6.49206 1.58368 6.43198 1.49827 6.34658C1.41286 6.26117 1.35278 6.15378 1.32469 6.03631C1.31292 5.98269 1.30769 5.89638 1.30769 5.49231V2.35385C1.30769 1.95108 1.31162 1.86477 1.326 1.80854C1.35409 1.69107 1.41417 1.58368 1.49958 1.49827C1.58498 1.41286 1.69238 1.35278 1.80985 1.32469L1.80854 1.326ZM11.5077 0H11.4423C11.1428 0 10.8852 9.74307e-09 10.6577 0.0536154C10.3054 0.137785 9.98338 0.31783 9.72718 0.573801C9.47098 0.829773 9.29064 1.15168 9.20615 1.50385C9.15385 1.73138 9.15385 1.98769 9.15385 2.28846V5.55769C9.15385 5.85715 9.15385 6.11477 9.20746 6.34231C9.29163 6.69455 9.47168 7.01662 9.72765 7.27282C9.98362 7.52902 10.3055 7.70936 10.6577 7.79385C10.8852 7.84615 11.1415 7.84615 11.4423 7.84615H14.7115C15.011 7.84615 15.2686 7.84615 15.4962 7.79254C15.8484 7.70837 16.1705 7.52832 16.4267 7.27235C16.6829 7.01638 16.8632 6.69448 16.9477 6.34231C17 6.11477 17 5.85846 17 5.55769V2.28846C17 1.989 17 1.73138 16.9464 1.50385C16.8622 1.1516 16.6822 0.829535 16.4262 0.573332C16.1702 0.31713 15.8483 0.136795 15.4962 0.0523076C15.2686 -4.87153e-08 15.0123 0 14.7115 0H11.5077ZM10.9624 1.326C11.0186 1.31292 11.1062 1.30769 11.5077 1.30769H14.6462C15.0489 1.30769 15.1352 1.31162 15.1915 1.326C15.3089 1.35409 15.4163 1.41417 15.5017 1.49958C15.5871 1.58498 15.6472 1.69238 15.6753 1.80985C15.6884 1.86477 15.6923 1.95108 15.6923 2.35385V5.49231C15.6923 5.89508 15.6871 5.98138 15.674 6.03762C15.6459 6.15509 15.5858 6.26248 15.5004 6.34788C15.415 6.43329 15.3076 6.49337 15.1902 6.52146C15.1352 6.53454 15.0489 6.53846 14.6462 6.53846H11.5077C11.1049 6.53846 11.0186 6.53454 10.9624 6.52015C10.8449 6.49206 10.7375 6.43198 10.6521 6.34658C10.5667 6.26117 10.5066 6.15378 10.4785 6.03631C10.4668 5.98269 10.4615 5.89638 10.4615 5.49231V2.35385C10.4615 1.95108 10.4655 1.86477 10.4798 1.80854C10.5079 1.69107 10.568 1.58368 10.6534 1.49827C10.7388 1.41286 10.8462 1.35278 10.9637 1.32469L10.9624 1.326ZM2.28846 9.15385H5.55769C5.85715 9.15385 6.11477 9.15385 6.34231 9.20746C6.69455 9.29163 7.01662 9.47168 7.27282 9.72765C7.52902 9.98362 7.70936 10.3055 7.79385 10.6577C7.84615 10.8852 7.84615 11.1415 7.84615 11.4423V14.7115C7.84615 15.011 7.84615 15.2686 7.79254 15.4962C7.70837 15.8484 7.52832 16.1705 7.27235 16.4267C7.01638 16.6829 6.69448 16.8632 6.34231 16.9477C6.11477 17 5.85846 17 5.55769 17H2.28846C1.989 17 1.73138 17 1.50385 16.9464C1.1516 16.8622 0.829535 16.6822 0.573332 16.4262C0.31713 16.1702 0.136795 15.8483 0.0523076 15.4962C-4.87153e-08 15.2686 0 15.0123 0 14.7115V11.4423C0 11.1428 9.74307e-09 10.8852 0.0536154 10.6577C0.137785 10.3054 0.31783 9.98338 0.573801 9.72718C0.829773 9.47098 1.15168 9.29064 1.50385 9.20615C1.73138 9.15385 1.98769 9.15385 2.28846 9.15385ZM2.35385 10.4615C1.95108 10.4615 1.86477 10.4655 1.80854 10.4798C1.69107 10.5079 1.58368 10.568 1.49827 10.6534C1.41286 10.7388 1.35278 10.8462 1.32469 10.9637C1.31292 11.0173 1.30769 11.1036 1.30769 11.5077V14.6462C1.30769 15.0489 1.31162 15.1352 1.326 15.1915C1.35409 15.3089 1.41417 15.4163 1.49958 15.5017C1.58498 15.5871 1.69238 15.6472 1.80985 15.6753C1.86477 15.6884 1.95108 15.6923 2.35385 15.6923H5.49231C5.89508 15.6923 5.98138 15.6871 6.03762 15.674C6.15509 15.6459 6.26248 15.5858 6.34788 15.5004C6.43329 15.415 6.49337 15.3076 6.52146 15.1902C6.53454 15.1352 6.53846 15.0489 6.53846 14.6462V11.5077C6.53846 11.1049 6.53454 11.0186 6.52015 10.9624C6.49206 10.8449 6.43198 10.7375 6.34658 10.6521C6.26117 10.5667 6.15378 10.5066 6.03631 10.4785C5.98269 10.4668 5.89638 10.4615 5.49231 10.4615H2.35385ZM11.5077 9.15385H11.4423C11.1428 9.15385 10.8852 9.15385 10.6577 9.20746C10.3054 9.29163 9.98338 9.47168 9.72718 9.72765C9.47098 9.98362 9.29064 10.3055 9.20615 10.6577C9.15385 10.8852 9.15385 11.1415 9.15385 11.4423V14.7115C9.15385 15.011 9.15385 15.2686 9.20746 15.4962C9.29163 15.8484 9.47168 16.1705 9.72765 16.4267C9.98362 16.6829 10.3055 16.8632 10.6577 16.9477C10.8852 17.0013 11.1428 17.0013 11.4423 17.0013H14.7115C15.011 17.0013 15.2686 17.0013 15.4962 16.9477C15.8482 16.8633 16.1699 16.6832 16.4259 16.4272C16.6819 16.1713 16.862 15.8495 16.9464 15.4975C17 15.2699 17 15.0123 17 14.7128V11.4423C17 11.1428 17 10.8852 16.9464 10.6577C16.8622 10.3054 16.6822 9.98338 16.4262 9.72718C16.1702 9.47098 15.8483 9.29064 15.4962 9.20615C15.2686 9.15385 15.0123 9.15385 14.7115 9.15385H11.5077ZM10.9624 10.4798C11.0186 10.4668 11.1062 10.4615 11.5077 10.4615H14.6462C15.0489 10.4615 15.1352 10.4655 15.1915 10.4798C15.3089 10.5079 15.4163 10.568 15.5017 10.6534C15.5871 10.7388 15.6472 10.8462 15.6753 10.9637C15.6884 11.0186 15.6923 11.1049 15.6923 11.5077V14.6462C15.6923 15.0489 15.6871 15.1352 15.674 15.1915C15.6459 15.3089 15.5858 15.4163 15.5004 15.5017C15.415 15.5871 15.3076 15.6472 15.1902 15.6753C15.1352 15.6884 15.0489 15.6923 14.6462 15.6923H11.5077C11.1049 15.6923 11.0186 15.6871 10.9624 15.674C10.8449 15.6459 10.7375 15.5858 10.6521 15.5004C10.5667 15.415 10.5066 15.3076 10.4785 15.1902C10.4668 15.1365 10.4615 15.0502 10.4615 14.6462V11.5077C10.4615 11.1049 10.4655 11.0186 10.4798 10.9624C10.5079 10.8449 10.568 10.7375 10.6534 10.6521C10.7388 10.5667 10.8462 10.5066 10.9637 10.4785L10.9624 10.4798Z" fill="white"/>
</svg>
