<svg width="17" height="18" viewBox="0 0 17 18" fill="none" xmlns="http://www.w3.org/2000/svg">
<path d="M8.5 0.5C13.1946 0.5 17 4.30526 17 8.99957C17 13.6939 13.1946 17.4991 8.5 17.4991C7.1434 17.501 5.8062 17.1769 4.60106 16.554L1.34896 17.4609C1.16752 17.5115 0.975877 17.513 0.793672 17.4652C0.611468 17.4174 0.44525 17.322 0.31205 17.1888C0.17885 17.0556 0.0834572 16.8894 0.0356452 16.7072C-0.0121668 16.525 -0.0106787 16.3334 0.0399571 16.152L0.947757 12.9026C0.323306 11.6964 -0.00175848 10.3578 7.1544e-06 8.99957C7.1544e-06 4.30526 3.80546 0.5 8.5 0.5ZM8.5 1.77494C6.58382 1.77494 4.74611 2.5361 3.39116 3.89098C2.03621 5.24587 1.27501 7.08348 1.27501 8.99957C1.27501 10.249 1.59206 11.45 2.18706 12.5158L2.31456 12.7453L1.36936 16.1316L4.75831 15.1864L4.98781 15.3139C5.95203 15.85 7.02622 16.1581 8.128 16.2147C9.22978 16.2713 10.3299 16.0748 11.344 15.6404C12.358 15.2059 13.2592 14.545 13.9782 13.7083C14.6973 12.8717 15.2151 11.8814 15.4922 10.8136C15.7692 9.74578 15.7979 8.62869 15.5763 7.54801C15.3546 6.46732 14.8884 5.45175 14.2134 4.57917C13.5384 3.70659 12.6725 3.00017 11.6821 2.51408C10.6918 2.02799 9.60324 1.77515 8.5 1.77494V1.77494ZM8.5 11.9744C8.72544 11.9744 8.94164 12.064 9.10104 12.2234C9.26045 12.3828 9.35 12.599 9.35 12.8244C9.35 13.0498 9.26045 13.266 9.10104 13.4254C8.94164 13.5848 8.72544 13.6743 8.5 13.6743C8.27457 13.6743 8.05837 13.5848 7.89896 13.4254C7.73956 13.266 7.65 13.0498 7.65 12.8244C7.65 12.599 7.73956 12.3828 7.89896 12.2234C8.05837 12.064 8.27457 11.9744 8.5 11.9744V11.9744ZM8.5 4.5373C9.11995 4.5373 9.7145 4.78356 10.1529 5.2219C10.5912 5.66024 10.8375 6.25477 10.8375 6.87468C10.8375 7.73314 10.5851 8.21251 9.94415 8.87973L9.8005 9.02507C9.2718 9.55374 9.1375 9.77813 9.1375 10.2745C9.1375 10.4436 9.07034 10.6057 8.95078 10.7253C8.83123 10.8448 8.66908 10.912 8.5 10.912C8.33093 10.912 8.16878 10.8448 8.04922 10.7253C7.92967 10.6057 7.8625 10.4436 7.8625 10.2745C7.8625 9.41605 8.11495 8.93668 8.75585 8.26946L8.8995 8.12412C9.4282 7.59544 9.5625 7.37105 9.5625 6.87468C9.56163 6.60293 9.45664 6.34184 9.26915 6.14512C9.08165 5.9484 8.8259 5.831 8.55449 5.81706C8.28308 5.80313 8.01665 5.89372 7.80999 6.07021C7.60333 6.24669 7.47216 6.49565 7.44345 6.76588L7.4375 6.87468C7.4375 7.04375 7.37034 7.20589 7.25078 7.32544C7.13123 7.44499 6.96908 7.51215 6.8 7.51215C6.63093 7.51215 6.46878 7.44499 6.34922 7.32544C6.22967 7.20589 6.1625 7.04375 6.1625 6.87468C6.1625 6.25477 6.40878 5.66024 6.84714 5.2219C7.28551 4.78356 7.88006 4.5373 8.5 4.5373V4.5373Z" fill="white"/>
</svg>
