<svg width="17" height="10" viewBox="0 0 17 10" fill="none" xmlns="http://www.w3.org/2000/svg">
<path d="M16.7487 0.295456C16.6697 0.201836 16.5758 0.127528 16.4723 0.0768181C16.3687 0.0261082 16.2577 0 16.1456 0C16.0334 0 15.9224 0.0261082 15.8189 0.0768181C15.7153 0.127528 15.6214 0.201836 15.5424 0.295456L10.199 6.58816L6.55463 2.29314C6.47566 2.19952 6.3817 2.12521 6.27818 2.0745C6.17466 2.02379 6.06362 1.99768 5.95148 1.99768C5.83933 1.99768 5.7283 2.02379 5.62478 2.0745C5.52126 2.12521 5.4273 2.19952 5.34833 2.29314L0.251283 8.28619C0.17166 8.37904 0.108461 8.48952 0.065333 8.61124C0.0222046 8.73295 0 8.86351 0 8.99537C0 9.12723 0.0222046 9.25778 0.065333 9.3795C0.108461 9.50122 0.17166 9.61169 0.251283 9.70454C0.330256 9.79816 0.424212 9.87247 0.527733 9.92318C0.631253 9.97389 0.742288 10 0.854433 10C0.966578 10 1.07761 9.97389 1.18113 9.92318C1.28465 9.87247 1.37861 9.79816 1.45758 9.70454L5.95148 4.41068L9.59586 8.7057C9.67484 8.79932 9.76879 8.87363 9.87231 8.92434C9.97583 8.97505 10.0869 9.00116 10.199 9.00116C10.3112 9.00116 10.4222 8.97505 10.5257 8.92434C10.6292 8.87363 10.7232 8.79932 10.8022 8.7057L16.7487 1.71381C16.8283 1.62096 16.8915 1.51048 16.9347 1.38876C16.9778 1.26705 17 1.13649 17 1.00463C17 0.872774 16.9778 0.74222 16.9347 0.620502C16.8915 0.498784 16.8283 0.388311 16.7487 0.295456Z" fill="white"/>
</svg>
