<svg width="17" height="18" viewBox="0 0 17 18" fill="none" xmlns="http://www.w3.org/2000/svg">
<path d="M16.4985 8.80966L8.8485 1.15966C8.5425 0.853656 8.1175 0.666656 7.65 0.666656H1.7C0.765 0.666656 0 1.43166 0 2.36666V8.31666C0 8.78416 0.187 9.20916 0.5015 9.52366L8.1515 17.1737C8.4575 17.4797 8.8825 17.6667 9.35 17.6667C9.8175 17.6667 10.2425 17.4797 10.5485 17.1652L16.4985 11.2152C16.813 10.9092 17 10.4842 17 10.0167C17 9.54916 16.8045 9.11566 16.4985 8.80966ZM9.35 15.9752L1.7 8.31666V2.36666H7.65V2.35816L15.3 10.0082L9.35 15.9752V15.9752Z" fill="white"/>
</svg>
