<svg width="50" height="50" viewBox="0 0 50 50" fill="none" xmlns="http://www.w3.org/2000/svg">
<path opacity="0.5" d="M5.2085 5.72917C5.2085 5.31477 5.04388 4.91734 4.75085 4.62431C4.45782 4.33129 4.0604 4.16667 3.646 4.16667C3.2316 4.16667 2.83417 4.33129 2.54114 4.62431C2.24812 4.91734 2.0835 5.31477 2.0835 5.72917V44.2708C2.0835 45.1333 2.7835 45.8333 3.646 45.8333H41.6668C42.0812 45.8333 42.4787 45.6687 42.7717 45.3757C43.0647 45.0827 43.2293 44.6852 43.2293 44.2708C43.2293 43.8564 43.0647 43.459 42.7717 43.166C42.4787 42.873 42.0812 42.7083 41.6668 42.7083H5.2085V5.72917Z" fill="#8DE3E3"/>
<path opacity="0.5" d="M46.4166 16.2083C46.6926 15.9121 46.8428 15.5204 46.8357 15.1156C46.8285 14.7108 46.6646 14.3246 46.3783 14.0383C46.092 13.752 45.7058 13.588 45.301 13.5809C44.8962 13.5737 44.5044 13.724 44.2082 14L32.2916 25.9167L24.5416 18.1667C24.2486 17.8741 23.8515 17.7097 23.4374 17.7097C23.0233 17.7097 22.6262 17.8741 22.3332 18.1667L9.83325 30.6667C9.67973 30.8097 9.5566 30.9822 9.4712 31.1739C9.3858 31.3655 9.33988 31.5725 9.33618 31.7822C9.33248 31.992 9.37107 32.2004 9.44966 32.395C9.52824 32.5896 9.64521 32.7663 9.79358 32.9147C9.94196 33.063 10.1187 33.18 10.3133 33.2586C10.5078 33.3372 10.7162 33.3758 10.926 33.3721C11.1358 33.3684 11.3427 33.3224 11.5344 33.237C11.726 33.1516 11.8985 33.0285 12.0416 32.875L23.4374 21.4792L31.1874 29.2292C31.4804 29.5218 31.8775 29.6861 32.2916 29.6861C32.7056 29.6861 33.1028 29.5218 33.3957 29.2292L46.4166 16.2083V16.2083Z" fill="#8DE3E3"/>
</svg>
