<svg width="17" height="18" viewBox="0 0 17 18" fill="none" xmlns="http://www.w3.org/2000/svg">
<path d="M16.7755 10.6824L15.4627 9.61987C15.5249 9.25936 15.5569 8.89125 15.5569 8.52315C15.5569 8.15504 15.5249 7.78693 15.4627 7.42642L16.7755 6.36384C16.8745 6.28359 16.9454 6.17671 16.9787 6.0574C17.012 5.9381 17.0061 5.81202 16.9619 5.69594L16.9439 5.64661C16.5825 4.69034 16.0413 3.80387 15.3465 3.03002L15.3104 2.99017C15.2261 2.89635 15.1138 2.8289 14.9882 2.79672C14.8626 2.76454 14.7297 2.76914 14.6069 2.80991L12.9775 3.35828C12.3762 2.8915 11.7048 2.5234 10.9792 2.26534L10.6646 0.65251C10.6408 0.531153 10.5787 0.419507 10.4863 0.332405C10.3939 0.245303 10.2758 0.186868 10.1475 0.164864L10.0934 0.155377C9.04916 -0.0229837 7.95084 -0.0229837 6.90663 0.155377L6.85251 0.164864C6.72423 0.186868 6.60606 0.245303 6.5137 0.332405C6.42134 0.419507 6.35916 0.531153 6.33542 0.65251L6.01875 2.27293C5.299 2.53104 4.62874 2.89895 4.03455 3.36207L2.39307 2.80991C2.27034 2.76882 2.13731 2.76405 2.01165 2.79625C1.886 2.82845 1.77366 2.89609 1.68958 2.99017L1.6535 3.03002C0.959528 3.80441 0.418442 4.69074 0.0561229 5.64661L0.0380847 5.69594C-0.0521063 5.93312 0.0220508 6.19876 0.224479 6.36384L1.55329 7.4378C1.49116 7.79452 1.4611 8.15883 1.4611 8.52125C1.4611 8.88556 1.49116 9.24987 1.55329 9.60469L0.224479 10.6787C0.125461 10.7589 0.0545925 10.8658 0.0212971 10.9851C-0.0119983 11.1044 -0.00614301 11.2305 0.0380847 11.3466L0.0561229 11.3959C0.418891 12.3522 0.956028 13.2345 1.6535 14.0125L1.68958 14.0523C1.77387 14.1461 1.88621 14.2136 2.01179 14.2458C2.13737 14.278 2.2703 14.2734 2.39307 14.2326L4.03455 13.6804C4.63181 14.1453 5.29922 14.5134 6.01875 14.7696L6.33542 16.39C6.35916 16.5113 6.42134 16.623 6.5137 16.7101C6.60606 16.7972 6.72423 16.8556 6.85251 16.8776L6.90663 16.8871C7.96043 17.0664 9.03957 17.0664 10.0934 16.8871L10.1475 16.8776C10.2758 16.8556 10.3939 16.7972 10.4863 16.7101C10.5787 16.623 10.6408 16.5113 10.6646 16.39L10.9792 14.7772C11.7045 14.5198 12.3797 14.1505 12.9775 13.6842L14.6069 14.2326C14.7297 14.2737 14.8627 14.2784 14.9883 14.2462C15.114 14.214 15.2263 14.1464 15.3104 14.0523L15.3465 14.0125C16.044 13.2326 16.5811 12.3522 16.9439 11.3959L16.9619 11.3466C17.0521 11.1132 16.9779 10.8475 16.7755 10.6824ZM14.0397 7.65032C14.0898 7.93683 14.1159 8.23094 14.1159 8.52504C14.1159 8.81915 14.0898 9.11325 14.0397 9.39977L13.9074 10.1606L15.4046 11.3731C15.1777 11.8681 14.8912 12.3367 14.5508 12.7696L12.6909 12.1454L12.0615 12.6349C11.5825 13.0068 11.0494 13.299 10.4722 13.504L9.70856 13.7753L9.3498 15.6158C8.78374 15.6765 8.21225 15.6765 7.64619 15.6158L7.28743 13.7715L6.52983 13.4964C5.95862 13.2914 5.4275 12.9992 4.95249 12.6292L4.32316 12.1378L2.45119 12.7677C2.11047 12.3332 1.82587 11.8646 1.59739 11.3712L3.11059 10.1474L2.98031 9.38838C2.93221 9.10566 2.90616 8.81345 2.90616 8.52504C2.90616 8.23473 2.93021 7.94442 2.98031 7.6617L3.11059 6.90272L1.59739 5.67886C1.82387 5.18363 2.11047 4.71685 2.45119 4.28234L4.32316 4.91229L4.95249 4.42085C5.4275 4.05085 5.95862 3.75864 6.52983 3.55372L7.28944 3.28238L7.6482 1.43806C8.21139 1.37734 8.78661 1.37734 9.3518 1.43806L9.71056 3.27858L10.4742 3.54992C11.0494 3.75485 11.5845 4.04705 12.0635 4.41895L12.6929 4.9085L14.5528 4.28423C14.8935 4.71875 15.1781 5.18742 15.4066 5.68076L13.9095 6.89323L14.0397 7.65032ZM8.502 4.99578C6.55388 4.99578 4.97454 6.49097 4.97454 8.3353C4.97454 10.1796 6.55388 11.6748 8.502 11.6748C10.4501 11.6748 12.0295 10.1796 12.0295 8.3353C12.0295 6.49097 10.4501 4.99578 8.502 4.99578ZM10.0894 9.83808C9.88117 10.0358 9.63374 10.1925 9.36132 10.2993C9.0889 10.4061 8.79686 10.4609 8.502 10.4604C7.90274 10.4604 7.33954 10.2384 6.91464 9.83808C6.70585 9.64098 6.54028 9.40673 6.42746 9.14883C6.31464 8.89092 6.25679 8.61444 6.25725 8.3353C6.25725 7.76796 6.49175 7.23477 6.91464 6.83251C7.33954 6.43025 7.90274 6.21015 8.502 6.21015C9.10127 6.21015 9.66447 6.43025 10.0894 6.83251C10.2982 7.02962 10.4637 7.26386 10.5766 7.52177C10.6894 7.77967 10.7472 8.05615 10.7468 8.3353C10.7468 8.90264 10.5123 9.43582 10.0894 9.83808Z" fill="white"/>
</svg>
