<svg width="18" height="18" viewBox="0 0 18 18" fill="none" xmlns="http://www.w3.org/2000/svg">
<path d="M16.7755 10.6608L15.4627 9.59827C15.5249 9.23775 15.5569 8.86964 15.5569 8.50154C15.5569 8.13343 15.5249 7.76533 15.4627 7.40481L16.7755 6.34224C16.8745 6.26199 16.9454 6.1551 16.9787 6.0358C17.012 5.91649 17.0061 5.79041 16.9619 5.67433L16.9439 5.625C16.5825 4.66873 16.0413 3.78226 15.3465 3.00841L15.3104 2.96857C15.2261 2.87474 15.1138 2.80729 14.9882 2.77512C14.8626 2.74294 14.7297 2.74754 14.6069 2.78831L12.9775 3.33667C12.3762 2.8699 11.7048 2.50179 10.9792 2.24374L10.6646 0.630903C10.6408 0.509546 10.5787 0.397901 10.4863 0.310799C10.3939 0.223697 10.2758 0.165262 10.1475 0.143258L10.0934 0.13377C9.04916 -0.0445901 7.95084 -0.0445901 6.90663 0.13377L6.85251 0.143258C6.72423 0.165262 6.60606 0.223697 6.5137 0.310799C6.42134 0.397901 6.35916 0.509546 6.33542 0.630903L6.01875 2.25133C5.299 2.50944 4.62874 2.87735 4.03455 3.34047L2.39307 2.78831C2.27034 2.74721 2.13731 2.74245 2.01165 2.77465C1.886 2.80684 1.77366 2.87448 1.68958 2.96857L1.6535 3.00841C0.959528 3.78281 0.418442 4.66913 0.0561229 5.625L0.0380847 5.67433C-0.0521063 5.91151 0.0220508 6.17716 0.224479 6.34224L1.55329 7.4162C1.49116 7.77292 1.4611 8.13723 1.4611 8.49964C1.4611 8.86395 1.49116 9.22826 1.55329 9.58309L0.224479 10.657C0.125461 10.7373 0.0545925 10.8442 0.0212971 10.9635C-0.0119983 11.0828 -0.00614301 11.2089 0.0380847 11.325L0.0561229 11.3743C0.418891 12.3306 0.956028 13.2129 1.6535 13.9909L1.68958 14.0307C1.77387 14.1245 1.88621 14.192 2.01179 14.2242C2.13737 14.2563 2.2703 14.2517 2.39307 14.211L4.03455 13.6588C4.63181 14.1237 5.29922 14.4918 6.01875 14.748L6.33542 16.3684C6.35916 16.4897 6.42134 16.6014 6.5137 16.6885C6.60606 16.7756 6.72423 16.834 6.85251 16.856L6.90663 16.8655C7.96043 17.0448 9.03957 17.0448 10.0934 16.8655L10.1475 16.856C10.2758 16.834 10.3939 16.7756 10.4863 16.6885C10.5787 16.6014 10.6408 16.4897 10.6646 16.3684L10.9792 14.7555C11.7045 14.4982 12.3797 14.1289 12.9775 13.6626L14.6069 14.211C14.7297 14.2521 14.8627 14.2568 14.9883 14.2246C15.114 14.1924 15.2263 14.1248 15.3104 14.0307L15.3465 13.9909C16.044 13.211 16.5811 12.3306 16.9439 11.3743L16.9619 11.325C17.0521 11.0916 16.9779 10.8259 16.7755 10.6608ZM14.0397 7.62871C14.0898 7.91523 14.1159 8.20933 14.1159 8.50344C14.1159 8.79754 14.0898 9.09165 14.0397 9.37816L13.9074 10.139L15.4046 11.3515C15.1777 11.8465 14.8912 12.3151 14.5508 12.748L12.6909 12.1238L12.0615 12.6133C11.5825 12.9852 11.0494 13.2774 10.4722 13.4824L9.70856 13.7537L9.3498 15.5942C8.78374 15.6549 8.21225 15.6549 7.64619 15.5942L7.28743 13.7499L6.52983 13.4748C5.95862 13.2698 5.4275 12.9776 4.95249 12.6076L4.32316 12.1162L2.45119 12.7461C2.11047 12.3116 1.82587 11.843 1.59739 11.3496L3.11059 10.1258L2.98031 9.36678C2.93221 9.08406 2.90616 8.79185 2.90616 8.50344C2.90616 8.21313 2.93021 7.92282 2.98031 7.6401L3.11059 6.88111L1.59739 5.65726C1.82387 5.16202 2.11047 4.69525 2.45119 4.26073L4.32316 4.89069L4.95249 4.39925C5.4275 4.02924 5.95862 3.73703 6.52983 3.53211L7.28944 3.26077L7.6482 1.41645C8.21139 1.35573 8.78661 1.35573 9.3518 1.41645L9.71056 3.25698L10.4742 3.52831C11.0494 3.73324 11.5845 4.02545 12.0635 4.39735L12.6929 4.88689L14.5528 4.26263C14.8935 4.69715 15.1781 5.16582 15.4066 5.65915L13.9095 6.87163L14.0397 7.62871ZM8.502 4.97417C6.55388 4.97417 4.97454 6.46937 4.97454 8.31369C4.97454 10.158 6.55388 11.6532 8.502 11.6532C10.4501 11.6532 12.0295 10.158 12.0295 8.31369C12.0295 6.46937 10.4501 4.97417 8.502 4.97417ZM10.0894 9.81647C9.88117 10.0141 9.63374 10.1709 9.36132 10.2777C9.0889 10.3845 8.79686 10.4393 8.502 10.4388C7.90274 10.4388 7.33954 10.2168 6.91464 9.81647C6.70585 9.61937 6.54028 9.38513 6.42746 9.12722C6.31464 8.86932 6.25679 8.59284 6.25725 8.31369C6.25725 7.74635 6.49175 7.21317 6.91464 6.81091C7.33954 6.40865 7.90274 6.18854 8.502 6.18854C9.10127 6.18854 9.66447 6.40865 10.0894 6.81091C10.2982 7.00801 10.4637 7.24225 10.5766 7.50016C10.6894 7.75806 10.7472 8.03454 10.7468 8.31369C10.7468 8.88103 10.5123 9.41421 10.0894 9.81647Z" fill="white"/>
</svg>
