<svg width="49" height="48" viewBox="0 0 49 48" fill="none" xmlns="http://www.w3.org/2000/svg">
<path d="M50.3541 19.2905C50.1151 18.5173 49.6755 17.8283 49.084 17.2995C48.4925 16.7707 47.7721 16.4229 47.0027 16.2945L34.9288 14.2492L29.3317 2.91179C28.9752 2.19004 28.4349 1.58459 27.7699 1.1619C27.105 0.7392 26.3413 0.515583 25.5625 0.515583C24.7837 0.515583 24.0199 0.7392 23.355 1.1619C22.6901 1.58459 22.1497 2.19004 21.7932 2.91179L16.1961 14.2492L4.12247 16.2945C3.35379 16.4249 2.63443 16.7735 2.0433 17.302C1.45218 17.8306 1.01215 18.5186 0.771478 19.2907C0.53081 20.0627 0.49881 20.889 0.678988 21.6787C0.859167 22.4685 1.24456 23.1913 1.79289 23.7678L10.4075 32.8199L8.54288 45.4213C8.42324 46.2239 8.51827 47.0454 8.81751 47.7953C9.11676 48.5453 9.60864 49.1947 10.239 49.6722C10.8695 50.1496 11.614 50.4365 12.3907 50.5015C13.1674 50.5664 13.9463 50.4067 14.6416 50.0401L25.5625 44.2973L36.4836 50.0401C37.179 50.406 37.9577 50.565 38.7341 50.4998C39.5105 50.4345 40.2547 50.1475 40.8849 49.6703C41.5151 49.193 42.0069 48.544 42.3063 47.7944C42.6058 47.0448 42.7013 46.2237 42.5824 45.4213L40.7178 32.8199L49.3324 23.7678C49.8824 23.1924 50.269 22.4696 50.4493 21.6794C50.6297 20.8892 50.5967 20.0624 50.3541 19.2905V19.2905ZM46.9656 21.3209L37.1666 31.6175L39.2879 45.9513C39.3142 46.1229 39.2944 46.2988 39.2306 46.4595C39.1669 46.6201 39.0618 46.7593 38.9268 46.8614C38.7919 46.9636 38.6325 47.0248 38.4662 47.0384C38.3 47.0519 38.1334 47.0172 37.9849 46.9381L25.5625 40.4056L13.14 46.9383C12.9915 47.0174 12.8249 47.0521 12.6586 47.0386C12.4923 47.0251 12.3329 46.9638 12.198 46.8616C12.0631 46.7595 11.9579 46.6204 11.8942 46.4597C11.8305 46.2991 11.8107 46.1232 11.8369 45.9515L13.9583 31.6175L4.15945 21.3208C4.04243 21.1976 3.96021 21.0431 3.92179 20.8744C3.88337 20.7057 3.89024 20.5293 3.94164 20.3644C3.99304 20.1995 4.08699 20.0525 4.2132 19.9395C4.3394 19.8266 4.493 19.752 4.65716 19.724L18.3906 17.3976L24.7572 4.50174C24.8333 4.34748 24.9487 4.21808 25.0908 4.12772C25.2328 4.03737 25.396 3.98957 25.5625 3.98957C25.7289 3.98957 25.8921 4.03737 26.0341 4.12772C26.1762 4.21808 26.2916 4.34748 26.3678 4.50174L32.7343 17.3976L46.4678 19.724C46.6319 19.752 46.7855 19.8266 46.9117 19.9395C47.0379 20.0525 47.1319 20.1995 47.1833 20.3644C47.2347 20.5293 47.2416 20.7057 47.2031 20.8744C47.1647 21.0431 47.0825 21.1976 46.9655 21.3208L46.9656 21.3209Z" fill="#8DE3E3"/>
</svg>
