<svg width="50" height="50" viewBox="0 0 50 50" fill="none" xmlns="http://www.w3.org/2000/svg">
<path opacity="0.5" d="M31.8672 33.3167C34.2816 33.3167 36.2411 35.4934 36.2411 38.1754L36.2386 40.8462C36.531 46.9265 32.462 50 25.1613 50C17.8881 50 13.7466 46.9737 13.7466 40.9517V38.1754C13.7466 35.4934 15.7062 33.3167 18.1206 33.3167H31.8672V33.3167ZM31.8672 37.4813H18.1206C17.9548 37.4813 17.7959 37.5544 17.6787 37.6846C17.5615 37.8147 17.4957 37.9913 17.4957 38.1754V40.9517C17.4957 44.2168 19.7127 45.8354 25.1613 45.8354C30.58 45.8354 32.647 44.2695 32.492 40.9573V38.1754C32.492 37.9913 32.4262 37.8147 32.309 37.6846C32.1918 37.5544 32.0329 37.4813 31.8672 37.4813ZM4.37393 19.4347H15.3112C14.9963 20.7939 14.9158 22.2069 15.0738 23.5993H4.37393C4.20821 23.5993 4.04928 23.6724 3.93209 23.8026C3.81491 23.9328 3.74908 24.1093 3.74908 24.2934V27.0698C3.74908 30.3348 5.96604 31.9535 11.4147 31.9535C12.5694 31.9535 13.5717 31.8813 14.4315 31.7397C13.0014 32.7461 11.9571 34.3047 11.4997 36.1153L11.4147 36.1181C4.14148 36.1181 0 33.0918 0 27.0698V24.2934C0 21.6114 1.95952 19.4347 4.37393 19.4347ZM45.6138 19.4347C48.0282 19.4347 49.9878 21.6114 49.9878 24.2934L49.9853 26.9643C50.2777 33.0446 46.2087 36.1181 38.908 36.1181L38.4856 36.1125C38.0143 34.2524 36.9267 32.6594 35.4413 31.6536C36.4086 31.8535 37.5583 31.9535 38.908 31.9535C44.3266 31.9535 46.3936 30.3876 46.2387 27.0753V24.2934C46.2387 24.1093 46.1728 23.9328 46.0557 23.8026C45.9385 23.6724 45.7795 23.5993 45.6138 23.5993H34.9164C35.0711 22.2066 34.9897 20.7941 34.6765 19.4347H45.6138ZM24.9939 13.8819C25.9785 13.8819 26.9536 14.0974 27.8633 14.516C28.773 14.9345 29.5996 15.5481 30.2959 16.3215C30.9921 17.0949 31.5445 18.0131 31.9213 19.0237C32.2981 20.0342 32.492 21.1173 32.492 22.2111C32.492 23.3049 32.2981 24.388 31.9213 25.3985C31.5445 26.4091 30.9921 27.3273 30.2959 28.1007C29.5996 28.8742 28.773 29.4877 27.8633 29.9063C26.9536 30.3248 25.9785 30.5403 24.9939 30.5403C23.0052 30.5403 21.0981 29.6627 19.6919 28.1007C18.2857 26.5387 17.4957 24.4201 17.4957 22.2111C17.4957 20.0021 18.2857 17.8835 19.6919 16.3215C21.0981 14.7595 23.0052 13.8819 24.9939 13.8819V13.8819ZM24.9939 18.0465C24.5015 18.0465 24.014 18.1543 23.5592 18.3635C23.1043 18.5728 22.691 18.8796 22.3429 19.2663C21.9947 19.653 21.7186 20.1121 21.5302 20.6174C21.3418 21.1227 21.2448 21.6642 21.2448 22.2111C21.2448 22.758 21.3418 23.2996 21.5302 23.8048C21.7186 24.3101 21.9947 24.7692 22.3429 25.1559C22.691 25.5426 23.1043 25.8494 23.5592 26.0587C24.014 26.268 24.5015 26.3757 24.9939 26.3757C25.9882 26.3757 26.9418 25.9369 27.6449 25.1559C28.348 24.3749 28.743 23.3156 28.743 22.2111C28.743 21.1066 28.348 20.0473 27.6449 19.2663C26.9418 18.4853 25.9882 18.0465 24.9939 18.0465ZM11.2472 0C13.2359 0 15.1431 0.877535 16.5492 2.43956C17.9554 4.00158 18.7454 6.12014 18.7454 8.32917C18.7454 10.5382 17.9554 12.6568 16.5492 14.2188C15.1431 15.7808 13.2359 16.6583 11.2472 16.6583C9.25861 16.6583 7.35142 15.7808 5.94524 14.2188C4.53906 12.6568 3.74908 10.5382 3.74908 8.32917C3.74908 6.12014 4.53906 4.00158 5.94524 2.43956C7.35142 0.877535 9.25861 0 11.2472 0V0ZM38.7405 0C40.7291 0 42.6363 0.877535 44.0425 2.43956C45.4487 4.00158 46.2387 6.12014 46.2387 8.32917C46.2387 10.5382 45.4487 12.6568 44.0425 14.2188C42.6363 15.7808 40.7291 16.6583 38.7405 16.6583C36.7519 16.6583 34.8447 15.7808 33.4385 14.2188C32.0323 12.6568 31.2423 10.5382 31.2423 8.32917C31.2423 6.12014 32.0323 4.00158 33.4385 2.43956C34.8447 0.877535 36.7519 0 38.7405 0ZM11.2472 4.16458C10.2529 4.16458 9.29933 4.60335 8.59624 5.38436C7.89315 6.16537 7.49816 7.22465 7.49816 8.32917C7.49816 9.43368 7.89315 10.493 8.59624 11.274C9.29933 12.055 10.2529 12.4938 11.2472 12.4938C12.2416 12.4938 13.1952 12.055 13.8982 11.274C14.6013 10.493 14.9963 9.43368 14.9963 8.32917C14.9963 7.22465 14.6013 6.16537 13.8982 5.38436C13.1952 4.60335 12.2416 4.16458 11.2472 4.16458ZM38.7405 4.16458C37.7462 4.16458 36.7926 4.60335 36.0895 5.38436C35.3864 6.16537 34.9914 7.22465 34.9914 8.32917C34.9914 9.43368 35.3864 10.493 36.0895 11.274C36.7926 12.055 37.7462 12.4938 38.7405 12.4938C39.7348 12.4938 40.6884 12.055 41.3915 11.274C42.0946 10.493 42.4896 9.43368 42.4896 8.32917C42.4896 7.22465 42.0946 6.16537 41.3915 5.38436C40.6884 4.60335 39.7348 4.16458 38.7405 4.16458Z" fill="#8CE3E3"/>
</svg>
