<svg width="200" height="200" viewBox="0 0 200 200" fill="none" xmlns="http://www.w3.org/2000/svg">
<circle cx="100" cy="100" r="94.1748" fill="#FF9047"/>
<mask id="path-2-inside-1_186_2258" fill="white">
<path d="M159.881 19.9108C142.049 6.57793 120.276 -0.422232 98.0152 0.0196993C75.7539 0.46163 54.2769 8.32038 36.9877 22.3505C19.6985 36.3806 7.58623 55.7795 2.5704 77.4728C-2.44542 99.1662 -0.0778669 121.913 9.29785 142.108C18.6736 162.304 34.5211 178.793 54.329 188.962C74.1369 199.131 96.772 202.398 118.647 198.246C140.522 194.094 160.386 182.76 175.091 166.041C189.795 149.322 198.499 128.173 199.823 105.947L100 100L159.881 19.9108Z"/>
</mask>
<path d="M159.881 19.9108C142.049 6.57793 120.276 -0.422232 98.0152 0.0196993C75.7539 0.46163 54.2769 8.32038 36.9877 22.3505C19.6985 36.3806 7.58623 55.7795 2.5704 77.4728C-2.44542 99.1662 -0.0778669 121.913 9.29785 142.108C18.6736 162.304 34.5211 178.793 54.329 188.962C74.1369 199.131 96.772 202.398 118.647 198.246C140.522 194.094 160.386 182.76 175.091 166.041C189.795 149.322 198.499 128.173 199.823 105.947L100 100L159.881 19.9108Z" fill="#3BCAC9" stroke="white" stroke-width="12" mask="url(#path-2-inside-1_186_2258)"/>
</svg>
