<svg width="206" height="206" viewBox="0 0 206 206" fill="none" xmlns="http://www.w3.org/2000/svg">
<circle cx="103" cy="103" r="97" fill="#FF9047"/>
<mask id="path-2-inside-1_156_2373" fill="white">
<path d="M164.677 20.5081C146.31 6.77527 123.885 -0.434899 100.956 0.0202903C78.0265 0.475479 55.9052 8.56999 38.0973 23.021C20.2895 37.472 7.81381 57.4529 2.64751 79.797C-2.51878 102.141 -0.0802029 125.57 9.57679 146.372C19.2338 167.173 35.5568 184.156 55.9589 194.63C76.361 205.104 99.6752 208.47 122.207 204.193C144.738 199.917 165.198 188.243 180.343 171.022C195.489 153.801 204.454 132.018 205.818 109.125L103 103L164.677 20.5081Z"/>
</mask>
<path d="M164.677 20.5081C146.31 6.77527 123.885 -0.434899 100.956 0.0202903C78.0265 0.475479 55.9052 8.56999 38.0973 23.021C20.2895 37.472 7.81381 57.4529 2.64751 79.797C-2.51878 102.141 -0.0802029 125.57 9.57679 146.372C19.2338 167.173 35.5568 184.156 55.9589 194.63C76.361 205.104 99.6752 208.47 122.207 204.193C144.738 199.917 165.198 188.243 180.343 171.022C195.489 153.801 204.454 132.018 205.818 109.125L103 103L164.677 20.5081Z" fill="#3BCAC9" stroke="white" stroke-width="12" mask="url(#path-2-inside-1_156_2373)"/>
</svg>
